<?xml version="1.0" encoding="UTF-8"?>
<svg xmlns="http://www.w3.org/2000/svg" xmlns:xlink="http://www.w3.org/1999/xlink" width="172.017989pt" height="186.477998pt" viewBox="0 0 172.017989 186.477998" version="1.1">
<defs>
<clipPath id="clip1">
  <path d="M 0 0 L 172.019531 0 L 172.019531 186.476562 L 0 186.476562 Z M 0 0 "/>
</clipPath>
</defs>
<g id="surface1">
<g clip-path="url(#clip1)" clip-rule="nonzero">
<path style=" stroke:none;fill-rule:evenodd;fill:rgb(10.195923%,10.195923%,10.195923%);fill-opacity:1;" d="M 116.085938 44.625 C 120.199219 44.625 123.933594 42.96875 126.648438 40.292969 L 145.023438 17.453125 C 146.292969 15.835938 148.234375 14.804688 150.445312 14.804688 C 150.808594 14.804688 151.164062 14.828125 151.511719 14.882812 C 163.5625 16.683594 172.007812 26.855469 172.007812 39.160156 L 172.019531 161.90625 C 172.019531 175.480469 161.011719 186.476562 147.4375 186.476562 L 24.582031 186.476562 C 11.003906 186.476562 0 175.480469 0 161.90625 L 0.0078125 39.160156 C 0.0078125 26.855469 8.457031 16.683594 20.503906 14.882812 C 20.855469 14.828125 21.210938 14.804688 21.570312 14.804688 C 23.777344 14.804688 25.726562 15.835938 26.992188 17.453125 L 45.371094 40.292969 C 48.085938 42.96875 51.9375 44.625 56.050781 44.625 C 64.339844 44.625 70.929688 37.902344 70.929688 29.617188 L 70.917969 21.855469 L 70.9375 2.667969 C 70.9375 1.183594 72.089844 0 73.574219 0 C 88.976562 1.261719 100.941406 13.878906 100.941406 29.617188 C 100.941406 37.902344 107.800781 44.625 116.085938 44.625 M 110.535156 162.042969 C 104.121094 162.042969 98.550781 165.660156 95.429688 171.390625 C 94.113281 173.6875 91.628906 175.242188 88.796875 175.242188 L 85.933594 175.242188 C 83.097656 175.242188 80.613281 173.6875 78.972656 170.964844 C 76.175781 165.660156 70.609375 162.042969 64.199219 162.042969 L 28.558594 162.042969 C 26.40625 162.042969 24.609375 160.300781 24.609375 158.15625 L 24.636719 110.25 C 24.636719 108.105469 26.210938 106.242188 28.363281 106.242188 L 64.199219 106.242188 C 70.609375 106.242188 76.175781 109.859375 79.296875 115.589844 C 80.613281 117.890625 83.097656 119.441406 85.933594 119.441406 L 88.796875 119.441406 C 91.628906 119.441406 94.113281 117.890625 95.753906 115.164062 C 98.550781 109.859375 104.121094 106.242188 110.535156 106.242188 L 143.597656 106.261719 C 145.742188 106.261719 147.425781 108.003906 147.425781 110.148438 L 147.378906 158.175781 C 147.378906 160.320312 145.574219 162.054688 143.429688 162.054688 Z M 110.535156 162.042969 "/>
</g>
</g>
</svg>
